<svg xmlns="http://www.w3.org/2000/svg" width="34" height="30" viewBox="0 0 34 30">
    <g fill="#FFA900" fill-rule="evenodd">
        <path fill-rule="nonzero" d="M31.167 27.143H2.833C1.271 27.143 0 25.804 0 24.159V2.984C0 1.339 1.27 0 2.833 0h28.334C32.729 0 34 1.339 34 2.984v21.175c0 1.645-1.27 2.984-2.833 2.984zM2.833 1.429c-.781 0-1.416.697-1.416 1.555v21.175c0 .857.635 1.555 1.416 1.555h28.334c.781 0 1.416-.698 1.416-1.555V2.984c0-.858-.635-1.555-1.416-1.555H2.833z"/>
        <path d="M26.917 30H7.083a.711.711 0 0 1-.708-.714c0-.395.317-.715.708-.715h19.834c.39 0 .708.32.708.715a.711.711 0 0 1-.708.714z"/>
        <path d="M17 30a.711.711 0 0 1-.708-.714v-2.857c0-.395.317-.715.708-.715.391 0 .708.32.708.715v2.857A.711.711 0 0 1 17 30z"/>
        <ellipse cx="17" cy="23.571" rx="1.417" ry="1.429"/>
        <path d="M.708 20h32.584v1.429H.708z"/>
    </g>
</svg>
