<svg xmlns="http://www.w3.org/2000/svg" width="30" height="30" viewBox="0 0 30 30">
    <g fill="#FFA900" fill-rule="evenodd">
        <path fill-rule="nonzero" d="M5.34 7.5H3.493c-1.36 0-2.465-1.121-2.465-2.5V3.75C1.027 1.682 2.685 0 4.724 0h3.081c.34 0 .617.28.617.625v3.75C8.422 6.098 7.039 7.5 5.34 7.5zm-.616-6.25c-1.359 0-2.464 1.121-2.464 2.5V5c0 .69.552 1.25 1.232 1.25h1.849c1.019 0 1.848-.841 1.848-1.875V1.25H4.724z"/>
        <path fill-rule="nonzero" d="M12.119 7.5H10.27c-1.699 0-3.08-1.402-3.08-3.125V.625A.62.62 0 0 1 7.804 0h3.081c2.04 0 3.698 1.682 3.698 3.75V5c0 1.379-1.106 2.5-2.465 2.5zM8.422 1.25v3.125c0 1.034.829 1.875 1.848 1.875h1.849c.68 0 1.232-.56 1.232-1.25V3.75c0-1.379-1.105-2.5-2.465-2.5H8.422z"/>
        <path d="M1.027 5a.62.62 0 0 1-.616-.625v-1.25a.62.62 0 0 1 .616-.625c.34 0 .616.28.616.625v1.25A.62.62 0 0 1 1.027 5zM14.584 5a.62.62 0 0 1-.617-.625v-1.25a.62.62 0 0 1 .617-.625c.34 0 .616.28.616.625v1.25a.62.62 0 0 1-.616.625z"/>
        <path fill-rule="nonzero" d="M7.805 13.75c-1.359 0-2.464-1.121-2.464-2.5s1.105-2.5 2.464-2.5c1.36 0 2.465 1.121 2.465 2.5s-1.105 2.5-2.465 2.5zm0-3.75c-.68 0-1.232.56-1.232 1.25s.553 1.25 1.232 1.25c.68 0 1.233-.56 1.233-1.25S8.485 10 7.805 10zM27.524 30h-3.698c-1.359 0-2.464-1.121-2.464-2.5V15.625c0-2.412 1.935-4.375 4.313-4.375 2.378 0 4.313 1.963 4.313 4.375V27.5c0 1.379-1.105 2.5-2.464 2.5zm-1.849-17.5c-1.699 0-3.08 1.402-3.08 3.125V27.5c0 .69.552 1.25 1.231 1.25h3.698c.68 0 1.232-.56 1.232-1.25V15.625c0-1.723-1.382-3.125-3.08-3.125z"/>
        <path fill-rule="nonzero" d="M26.907 12.5h-2.464a.62.62 0 0 1-.617-.625v-2.5a.62.62 0 0 1 .617-.625h2.464c.34 0 .617.28.617.625v2.5a.62.62 0 0 1-.617.625zm-1.848-1.25h1.232V10H25.06v1.25z"/>
        <path d="M29.372 27.5h-7.394a.62.62 0 0 1-.616-.625.62.62 0 0 1 .616-.625h7.394c.34 0 .616.28.616.625a.62.62 0 0 1-.616.625zM29.372 16.25h-7.394a.62.62 0 0 1-.616-.625.62.62 0 0 1 .616-.625h7.394c.34 0 .616.28.616.625a.62.62 0 0 1-.616.625z"/>
        <path d="M9.346 30C4.419 30 .41 25.934.41 20.937V16.25c0-3.102 2.488-5.625 5.546-5.625.34 0 .616.28.616.625a.62.62 0 0 1-.616.625c-2.378 0-4.314 1.963-4.314 4.375v4.688c0 4.308 3.455 7.812 7.703 7.812 4.247 0 7.702-3.504 7.702-7.813V10.313c0-2.24 1.797-4.062 4.006-4.062h2.156c1.7 0 3.081 1.402 3.081 3.125a.62.62 0 0 1-.616.625.62.62 0 0 1-.616-.625c0-1.034-.83-1.875-1.849-1.875h-2.156c-1.531.002-2.772 1.26-2.773 2.813v10.624c0 4.997-4.009 9.063-8.935 9.063z"/>
    </g>
</svg>
