<svg xmlns="http://www.w3.org/2000/svg" width="34" height="30" viewBox="0 0 34 30">
    <g fill="#FFA900" fill-rule="evenodd">
        <path fill-rule="nonzero" d="M31.167 30H2.833C1.271 30 0 28.719 0 27.143V8.57c0-1.575 1.27-2.857 2.833-2.857h28.334C32.729 5.714 34 6.996 34 8.571v18.572C34 28.719 32.73 30 31.167 30zM2.833 7.143c-.781 0-1.416.64-1.416 1.428v18.572c0 .788.635 1.428 1.416 1.428h28.334c.781 0 1.416-.64 1.416-1.428V8.57c0-.787-.635-1.428-1.416-1.428H2.833z"/>
        <path d="M22.667 3.571H21.25V2.143a.712.712 0 0 0-.708-.714h-7.084c-.39 0-.708.32-.708.714V3.57h-1.417V2.143C11.333.96 12.287 0 13.458 0h7.084c1.171 0 2.125.961 2.125 2.143V3.57zM28.333 12.857H4.958a.711.711 0 0 1-.708-.714c0-.395.317-.714.708-.714h23.375c.392 0 .709.32.709.714a.711.711 0 0 1-.709.714zM28.333 18.571H4.958a.711.711 0 0 1-.708-.714c0-.394.317-.714.708-.714h23.375c.392 0 .709.32.709.714a.711.711 0 0 1-.709.714zM28.333 24.286H4.958a.711.711 0 0 1-.708-.715c0-.394.317-.714.708-.714h23.375c.392 0 .709.32.709.714a.711.711 0 0 1-.709.715zM11.333 3.571h1.417V6.43h-1.417zM21.25 3.571h1.417V6.43H21.25z"/>
        <path d="M12.042 2.857h9.916v1.429h-9.916z"/>
    </g>
</svg>
