<?xml version="1.0" encoding="UTF-8"?>
<svg width="460px" height="406px" viewBox="0 0 460 406" version="1.1" xmlns="http://www.w3.org/2000/svg" xmlns:xlink="http://www.w3.org/1999/xlink">
    <!-- Generator: sketchtool 52 (66869) - http://www.bohemiancoding.com/sketch -->
    <title>CC8F7360-B57D-4EC4-9B87-8C780CD28AE5</title>
    <desc>Created with sketchtool.</desc>
    <g id="Symbols" stroke="none" stroke-width="1" fill="none" fill-rule="evenodd">
        <g id="Scene-Desktop">
            <path d="M444.507335,89.8834266 C444.155068,89.6265643 443.319324,89.5354848 442.930521,89.4585383 C441.314412,89.139087 439.649588,89 438.001999,89 C432.921586,89.0076273 427.758679,89.5076674 422.762598,90.3731473 C419.590586,90.9225408 415.755861,92.7715001 412.600394,91.7673819 C407.103143,90.0178025 401.547296,90.1037224 396.331767,92.6014551 C391.563409,94.8853976 387.943537,99.2231162 385.831083,103.910123 C385.512366,104.617671 384.219341,107.221738 383.853286,108.97715 C383.6968,109.336085 383.546518,109.697486 383.410942,110.064272 C383.026275,111.10563 382.681361,112.165383 382.360805,113.227155 C382.22385,113.680085 381.879396,114.680165 382.288421,114.87354 C381.6349,116.082924 381.055601,117.329323 380.573043,118.616101 C379.16972,122.358438 377.635416,126.463523 377.142288,130.429969 C376.959606,131.898682 376.952712,133.37592 377.122297,134.84755 C377.20617,135.57484 377.171472,137.037497 377.663221,137.59048 C378.706924,138.76397 379.242793,137.121173 379.125141,136.338697 C378.226664,130.375007 379.961574,124.774738 382.017729,119.16886 C383.34729,115.54385 385.531898,112.227523 387.979154,109.224142 C389.959709,106.793036 392.084341,104.878572 394.799302,103.266733 C398.119299,101.295736 401.668855,99.7022933 405.185781,98.1039148 C407.498841,97.0522379 409.814658,96.0288271 412.192288,95.1227428 C412.721033,94.9210667 413.552871,94.4042016 414.139064,94.4021826 C415.378777,94.3976959 417.135517,95.3149969 418.332949,95.6562086 C422.271539,96.7789993 426.260452,98.2165304 430.330941,98.7899276 C432.941807,99.1580594 435.387915,98.7437149 437.829656,97.871505 C438.079208,97.7826688 438.497424,97.553624 439.009855,97.2265453 C440.822663,96.5272968 442.537581,95.6472352 444.030752,94.3777302 C444.891083,93.6461776 445.671678,92.7008349 446.383565,91.8355794 C446.59658,91.5769225 446.690794,91.2803532 446.694011,90.9985899 C446.855323,90.9140161 446.962405,90.8153092 446.986532,90.7000016 C447.16416,89.8484305 445.544374,89.8327271 444.507335,89.8834266" id="Twisted-Leaf" fill="#FFA900"></path>
            <path d="M49.9802578,150 C48.681409,150 47.38652,150.026144 46.0893017,150.093796 C45.1004901,150.145624 43.5894369,149.940145 42.7527323,150.55796 C41.8834166,151.199624 41.9432811,152.513226 42.0790825,153.440865 C42.79699,158.34646 44.5491316,162.696388 48.214606,166.171882 C53.8584025,171.523524 60.3284215,174.242688 67.9845485,175.453549 C73.3625654,176.304134 78.3273546,175.123085 82.286328,171.289378 C85.1789221,176.671062 87.3734084,182.626528 88.4744949,188.637264 C89.0177007,191.603187 89.1835508,194.533334 89.0880472,197.553379 C89.0265522,199.487776 88.9201007,201.417587 88.7132539,203.342811 C88.6235737,204.179406 88.1980003,205.445766 88.524809,206.236266 C88.908221,207.164593 90.2012464,207.25449 90.7817219,206.462844 C91.2648304,205.803979 91.1760819,204.5101 91.2753125,203.730379 C91.439765,202.435124 91.5921049,201.138951 91.7011187,199.837734 C91.8781498,197.731568 92.0090596,195.61944 91.9995092,193.505249 C91.9773803,188.755139 90.9238126,183.986454 89.4826401,179.477371 C86.7179276,170.82682 82.232054,163.138766 75.2554001,157.106703 C70.9656582,153.397522 66.0560747,151.895411 60.4858859,151.089087 C57.0179408,150.587084 53.4933924,150 49.9802578,150" id="Fill-16" fill="#FFA900" transform="translate(67.000000, 178.500000) rotate(-39.000000) translate(-67.000000, -178.500000) "></path>
            <path d="M92.4992647,167.818303 C91.44568,159.43808 90.3303527,151.105852 88.2891197,142.888497 C87.0859548,138.046115 85.5440213,133.305639 84.1430472,128.518304 C84.2686292,129.118825 84.3797659,129.723213 84.4762241,130.329193 C83.9888072,128.901364 82.9708701,127.535634 82.385364,126.112809 C81.7322906,124.525978 81.2071292,122.87773 80.7082957,121.239263 C79.7343939,118.041489 78.8154779,114.838256 77.7194889,111.677105 C76.4981507,108.155186 75.0918178,104.691727 73.7812442,101.200745 C72.6689458,98.2379474 71.6272436,95.1272946 70.1792053,92.299842 C69.3900653,90.7587324 68.682472,89.1034329 67.9077773,87.5325248 C67.6484585,87.0068416 65.4233957,81.1342475 65.440171,81.1342475 C65.8080636,81.1342475 67.1878356,83.7446937 67.4163996,84.1282082 C68.0843844,85.2482707 68.6519502,86.4138272 69.2255737,87.5816584 C69.473243,86.195001 69.8653666,84.8374598 70.4830254,83.5627177 C70.673612,83.1691945 72.0114455,80.2671317 72.4471385,80.2671317 C72.6647519,80.2671317 70.6538077,85.7473399 70.3996147,86.2284391 C70.1931848,86.6192326 69.8064199,87.1146624 69.6717512,87.5304776 C69.4541377,88.2019692 69.5662064,88.0340963 69.7458423,88.639849 C70.0750584,89.7501303 70.8036209,90.8374371 71.2621469,91.9035891 C71.513777,92.4727192 72.1339987,94.4453394 72.7374451,95.328833 C74.2912612,98.362601 75.3954049,102.061719 76.5782996,105.333193 C76.8327256,103.72589 77.2726124,102.176136 77.8818835,100.663688 C78.0263378,100.304513 79.1759148,96.9718491 79.5069948,96.9718491 C79.8795472,96.9718491 78.4529441,102.309434 78.2590957,102.770515 C77.8991248,103.62694 77.33319,104.455841 77.0337967,105.327506 C76.7052796,106.284245 77.282398,107.145447 77.6500576,108.124023 C79.0025696,111.724191 80.1882601,115.3603 81.2716677,119.045314 C87.5635861,116.2927 88.8147471,108.191354 89.225277,102.217081 C89.5209424,97.9113004 88.8536566,93.5265879 87.8075276,89.349783 C86.4114463,83.7754022 84.0626653,78.3936884 81.570595,73.2123758 C78.6668297,67.1750935 74.6735992,61.7829161 69.8588429,57.0563161 C67.3406776,54.5841717 64.4727929,52.4416314 61.5599411,50.4339808 C60.1370658,49.45313 58.6752811,48.6390147 57.0142892,48.0933141 C56.2654566,47.8476465 55.4968197,47.6697649 54.7197951,47.5335103 C54.1293963,47.4300115 52.9248335,46.8831735 52.4353196,47.0226126 C48.4381283,48.1272071 45.433478,49.9644827 43.1040353,53.3799453 C40.8987767,56.612977 39.5299554,60.478148 38.7690072,64.2698461 C37.9218524,68.492145 37.7175194,72.7492468 38.4446839,76.9986147 C38.9994351,80.2407452 39.9563286,83.4191841 40.9146201,86.5664596 C44.3228105,97.7604878 50.2966965,109.76158 61.0159074,115.902133 C64.4856074,117.889994 68.3355486,119.051911 72.2877727,119.6679 C73.2190372,119.813026 74.1493698,119.9511 75.0918178,120.004101 C75.7271839,120.040041 77.8159471,119.618539 78.2756381,119.892185 C78.9058784,120.267284 79.2679462,122.395266 79.5426424,123.166844 C81.6297746,129.031249 83.4962645,134.962076 85.1898751,140.945903 C86.9915935,147.312334 88.4228564,153.740637 89.6150707,160.240594 C90.1220589,163.005265 90.6159995,165.765386 91.036548,168.54507 C91.1346372,169.191768 91.0332862,171.225805 91.6651574,171.796982 C92.0647367,172.158204 92.6295066,172.010121 92.8671573,171.56792 C93.2804831,170.799071 92.6071395,168.67632 92.4992647,167.818303" id="Leaf" fill="#FFA900" transform="translate(65.500000, 109.500000) rotate(-37.000000) translate(-65.500000, -109.500000) "></path>
            <path d="M438.668953,114.441668 C436.420827,113.942845 433.93855,113.981022 431.648563,114.022172 C419.367364,114.191799 407.307435,120.097435 399.458545,129.533696 C392.776731,137.566988 390.939404,147.554652 389.619372,157.650905 C389.488496,158.653352 389.432373,159.649398 389.358539,160.653903 C389.342669,160.86948 389.318978,161.06174 389.293676,161.242797 C388.774542,161.714188 388.502209,162.263762 388.809504,162.867516 C387.66589,165.409411 386.698464,168.015773 385.868355,170.703977 C383.42518,178.616564 380.939913,186.679576 382.470865,195 C382.828532,190.421206 383.580897,185.739081 384.4807,181.2355 C384.532452,180.976944 384.588345,180.720445 384.646537,180.464861 C384.652518,180.437886 384.658038,180.41091 384.664018,180.384163 C384.982583,179.004969 385.396603,177.667154 385.900096,176.350371 C385.905387,176.335969 385.910447,176.321795 385.915967,176.307621 C385.98244,176.134336 386.053054,175.961966 386.122747,175.789595 C386.266964,175.432738 386.415091,175.076566 386.572188,174.722223 C386.625321,174.601518 386.676383,174.47967 386.725375,174.356907 C387.45842,172.532157 387.768015,170.476054 388.424695,168.587979 C388.581793,168.158653 388.746021,167.730927 388.918069,167.305487 C388.928189,167.280569 388.93854,167.255651 388.94889,167.230732 C389.413972,166.085862 389.927816,164.954938 390.471102,163.8359 C390.766436,163.610493 390.924223,163.051317 391.178845,162.543121 C391.231518,162.442991 391.643237,161.775226 391.765833,161.390478 C392.085778,160.761806 392.404573,160.132905 392.726818,159.505375 C392.717158,159.509033 392.707497,159.512691 392.697837,159.516348 C393.020312,158.913737 393.343707,158.313641 393.664572,157.716059 C393.735186,157.584838 393.806489,157.453388 393.877562,157.321709 C393.992798,157.112076 394.108033,156.902671 394.223039,156.693723 C395.298799,154.738437 396.439423,152.822243 397.623979,150.929824 C398.046739,150.254515 399.056717,149.286131 399.250386,148.527838 C399.257516,148.49949 399.259126,148.473429 399.263496,148.446224 C401.833867,144.779577 404.792957,141.397548 408.341564,138.717802 C407.912594,139.188735 407.000831,140.786935 406.75978,141.103329 C406.022135,142.07217 405.221237,142.97403 404.417349,143.886862 C402.977711,145.522097 401.572115,147.209225 400.323156,148.993284 C398.039149,152.25598 396.068646,155.689675 394.206018,159.19241 C394.188307,159.212985 394.168986,159.232417 394.152195,159.253449 C393.216051,160.425523 392.626764,162.197008 391.952832,163.537795 C394.619807,162.283193 397.568776,161.465919 400.305905,160.351911 C403.035444,159.241333 405.690689,158.004562 408.25416,156.552214 C411.661311,154.622075 415.195657,152.442753 418.414889,149.976528 C422.104033,147.652268 425.204119,144.453125 427.940558,141.096013 C431.17819,137.123946 434.14533,133.11713 435.980357,128.294182 C436.881769,125.924201 437.590893,123.452946 438.011352,120.952887 C438.029753,120.843841 438.053214,120.72565 438.078746,120.602888 C438.508866,119.739434 438.893444,118.85655 439.216149,117.953319 C439.728613,116.520859 440.93893,114.945063 438.668953,114.441668" id="Fill-10" fill="#FFA900"></path>
            <path d="M54.1471786,130.13033 C53.9345915,129.881771 49.3367699,127.79255 49.6034054,127.358919 C49.7179008,127.172714 51.4753895,128.021278 51.7113367,128.147874 C52.6445752,128.649045 53.4394543,129.351563 54.1471786,130.13033 Z M62.479922,124.928386 C62.4741315,124.961247 63.0835728,126.012118 63.2494588,126.335233 C63.6026091,127.022123 63.9286512,127.72252 64.2353721,128.4241 C63.7812608,127.184832 63.3147026,126.035458 62.479922,124.928386 Z M19.863621,133.482292 C19.2767004,133.674388 18.5710374,132.917288 19.3323352,132.730805 C19.9483309,132.58112 19.9181215,132.54583 20.1947143,132.041594 C20.4193145,131.632136 20.5576838,131.13274 20.7547741,130.703058 C21.1728309,129.791673 21.6470431,128.922518 22.2291355,128.108092 C23.4766505,126.362186 24.9966343,124.857756 26.7014088,123.589987 C29.6765575,121.37773 33.0124296,119.355753 36.5510523,118.339921 C42.1775121,116.724703 48.5811916,116.624751 54.2164549,117.744801 C57.706518,118.438302 60.8960649,119.643949 63.2135324,122.499691 C64.3718442,123.926765 65.2810273,125.598732 65.6784868,127.439762 C65.7822236,127.921021 65.7628247,128.456122 65.8926615,128.927252 C66.0922518,129.651641 66.0041955,129.458816 66.8379016,129.599759 C67.7482571,129.753558 68.6578005,129.910656 69.5671464,130.070384 C71.9480276,130.488916 74.342848,130.933253 76.6627586,131.612527 C77.4263267,131.835878 78.1731009,132.108965 78.9025597,132.426371 C79.4542993,132.666103 81.6512538,133.419042 81.9181599,134.147393 C82.3625867,135.359352 80.8736519,134.809962 80.410993,134.546051 C80.0057277,134.314771 79.5896531,134.099091 79.1675084,133.900538 C78.1045845,133.400625 76.9971382,133.014009 75.8647152,132.706267 C74.6409658,132.373593 73.3921361,132.125236 72.14816,131.87657 C70.9880205,131.644901 69.8236029,131.43404 68.6576553,131.232592 C68.0099634,131.120548 67.361699,131.011743 66.7134346,130.902938 C66.4919754,130.865731 66.1014006,130.670907 66.1309551,130.963489 C64.7680525,130.696526 63.2941592,130.735048 61.9058881,130.661363 C60.205483,130.571306 58.4987994,130.497397 56.7927152,130.55145 C55.5622428,130.590473 54.3306926,130.67247 53.1064649,130.840498 C52.3911092,130.938744 51.6871747,131.082391 50.9853072,131.264226 C50.5997899,131.364231 49.0795175,131.57612 48.8694904,131.917689 C48.959743,131.770911 50.6375739,131.913179 50.851122,131.904883 C51.7053247,131.872341 52.5528339,131.78638 53.4038726,131.689734 C54.9831738,131.510454 56.5631524,131.416801 58.14729,131.430482 C58.1412743,131.712982 57.0591462,132.216449 56.7949806,132.403686 C56.2026935,132.823804 55.635419,133.282058 55.1061978,133.784609 C54.1738513,134.669721 53.0575416,135.766296 52.4126525,136.815085 C52.6027172,136.505981 53.5402597,136.103769 53.8729948,135.867673 C54.4060229,135.489187 54.9281531,135.085556 55.4222622,134.653957 C55.8783796,134.255456 56.3040069,133.825088 56.7225087,133.385534 C57.1410522,132.945582 57.7090502,132.031075 58.2590143,131.738156 C58.2922063,131.72045 58.5319331,131.912946 58.6681076,131.847464 C58.8053339,131.781589 58.9763981,131.451943 59.0112467,131.438467 C59.5231746,131.237745 60.4954207,131.487431 61.0336035,131.51277 C62.4292894,131.578024 63.8236239,131.663612 65.2183637,131.741617 C65.650454,131.765708 66.0175983,131.665904 66.180819,131.989748 C66.3546871,132.335188 66.0360563,133.243163 65.9454161,133.619429 C65.6091408,135.016782 65.0118451,136.269788 64.0716599,137.352317 C62.3109462,139.380155 60.1398177,140.731989 57.6870807,141.63627 C48.2925249,145.099876 38.2979401,146.487006 28.906219,142.884075 C25.0180784,141.392278 19.1624983,138.726795 19.863621,133.482292 Z" id="Leave-the-Leaf!" fill="#FFA900"></path>
            <g id="Background-Shape-2" opacity="0.6" transform="translate(12.000000, 198.000000)" fill="#8991DC">
                <path d="M439.808055,98.0595023 C446.221808,141.88793 290.677391,170.475714 156.796707,150.524989 C22.9160217,130.574264 -38.5020886,52.6644326 25.3835421,11.1510117 C89.2691729,-30.3624091 433.394303,54.2310743 439.808055,98.0595023 Z" id="Background-Shape"></path>
            </g>
            <g id="Mobile3" transform="translate(78.000000, 10.000000)">
                <rect id="Container" fill="#F2F2F2" x="0" y="0" width="105" height="202" rx="8"></rect>
                <circle id="Touch" fill="#FFFFFF" cx="52.1698113" cy="179.258278" r="15"></circle>
                <g id="Camera" transform="translate(37.169811, 10.039735)" fill="#FFFFFF">
                    <circle id="Lens" cx="2" cy="2" r="2"></circle>
                    <rect id="Sensor" x="9" y="0" width="21" height="4" rx="2"></rect>
                </g>
                <g id="Rows" transform="translate(14.000000, 28.000000)">
                    <g id="Row">
                        <rect id="Background" fill="#FFFFFF" x="0" y="0" width="77" height="34.2919708" rx="4"></rect>
                        <g id="Text" transform="translate(39.000000, 10.287591)" fill="#DDE3E9">
                            <rect id="Name" x="0" y="0" width="19" height="5.14379562" rx="2.57189781"></rect>
                            <rect id="Name" x="0" y="8.5729927" width="12.7534247" height="5.14379562" rx="2.57189781"></rect>
                        </g>
                        <circle id="Avatar" fill="#C5CFD6" cx="21" cy="17.1459854" r="12"></circle>
                    </g>
                    <g id="Row" transform="translate(0.000000, 39.372263)">
                        <rect id="Background" fill="#FFFFFF" x="0" y="0" width="77" height="29.0540886" rx="4"></rect>
                        <g id="Text" transform="translate(39.000000, 8.716227)" fill="#DDE3E9">
                            <rect id="Name" x="0" y="0" width="19" height="4.35811329" rx="2.17905665"></rect>
                            <rect id="Name" x="0" y="7.26352215" width="12.7534247" height="4.35811329" rx="2.17905665"></rect>
                        </g>
                        <circle id="Avatar" fill="#C5CFD6" cx="21" cy="14.5270443" r="12"></circle>
                    </g>
                    <g id="Row" transform="translate(0.000000, 71.124088)">
                        <rect id="Background" fill="#FFFFFF" x="0" y="0" width="77" height="29.0540886" rx="4"></rect>
                        <g id="Text" transform="translate(39.000000, 8.716227)" fill="#DDE3E9">
                            <rect id="Name" x="0" y="0" width="19" height="4.35811329" rx="2.17905665"></rect>
                            <rect id="Name" x="0" y="7.26352215" width="12.7534247" height="4.35811329" rx="2.17905665"></rect>
                        </g>
                        <circle id="Avatar" fill="#AFB9C5" cx="21" cy="14.5270443" r="12"></circle>
                    </g>
                    <g id="Row" transform="translate(0.000000, 102.875912)">
                        <rect id="Background" fill="#FFFFFF" x="0" y="0" width="77" height="29.0540886" rx="4"></rect>
                        <g id="Text" transform="translate(39.000000, 8.716227)" fill="#DDE3E9">
                            <rect id="Name" x="0" y="0" width="19" height="4.35811329" rx="2.17905665"></rect>
                            <rect id="Name" x="0" y="7.26352215" width="12.7534247" height="4.35811329" rx="2.17905665"></rect>
                        </g>
                        <circle id="Avatar" fill="#C5CFD6" cx="21" cy="14.5270443" r="12"></circle>
                    </g>
                </g>
            </g>
            <g id="Mobile3" transform="translate(75.000000, 37.000000)">
                <g id="Group" transform="translate(0.542825, 116.554209)" fill="#FFA900">
                    <path d="M14.1945618,0 C12.6455063,0 11.1011734,0.0313174867 9.55406252,0.112358351 C8.37476896,0.174443895 6.57263062,-0.0717005617 5.57474547,0.668381098 C4.53796725,1.4370331 4.60936382,3.01059945 4.77132569,4.1218208 C5.62752893,9.99824499 7.71719821,15.2090352 12.0887797,19.372338 C18.8197817,25.7830824 26.5361675,29.0403758 35.66715,30.4908699 C42.0811734,31.5097871 48.0023661,30.0950059 52.7239852,25.5025986 C56.1738008,31.9493308 58.7910269,39.0833993 60.1042237,46.2836741 C60.7520712,49.8365605 60.9498703,53.3465915 60.8359691,56.9643106 C60.7626279,59.2815299 60.6356698,61.5932549 60.3889766,63.8994857 C60.2820206,64.9016452 59.774466,66.4186203 60.1642302,67.3655622 C60.6215016,68.4776077 62.163612,68.5852959 62.8559087,67.6369804 C63.4320818,66.8477248 63.3262371,65.297784 63.4445831,64.3637537 C63.6407154,62.8121645 63.8224016,61.2594765 63.9524156,59.7007447 C64.1635494,57.177764 64.3196773,54.6476408 64.3082872,52.1150451 C64.2818955,46.4248775 63.0253714,40.712458 61.3065753,35.3110157 C58.0092761,24.9484989 52.659256,15.7389601 44.3386385,8.51313681 C39.2225325,4.0698997 33.3671803,2.27051779 26.7239655,1.30462057 C22.5879649,0.703269877 18.3844571,0 14.1945618,0" id="Fill-16"></path>
                    <path d="M38.084027,41.2037146 C21.3650088,41.2037146 10.104731,54.7705232 4.78069994,68.8709438 C2.77374968,74.1859113 2.30336215,80.0221746 1.5298786,85.603011 C1.28154246,87.3939443 1.37353909,90.1230493 0.651529835,91.7185303 C0.389503723,92.297123 -0.211212356,92.5051594 0.0760033081,93.2933949 C0.249865984,93.7707808 0.591020148,94.0631562 1.10329899,94.1579373 C2.15496283,94.3528542 3.64196786,93.1996849 4.54358958,92.7445217 C12.0221488,88.9682735 16.9357545,83.1293328 20.944179,75.9854125 C23.4289094,71.5574777 25.9500551,66.9608648 27.4261081,62.0997218 C28.3277298,59.1301835 28.8526034,56.0026768 29.1609017,52.9220251 C29.2821948,51.7088813 29.3996548,50.4668213 29.392536,49.2461806 C29.3854173,48.0351788 28.8257711,47.3950051 28.4235596,46.3409007 C34.0022242,44.214753 40.2990649,43.635357 45.9500126,45.8386147 C51.176571,47.8764071 55.5182095,51.8143721 57.9492752,56.7617284 C58.5809306,58.0476983 59.0680199,59.4043524 59.422864,60.7880485 C59.655046,61.6943588 59.6662718,62.8702863 60.0966846,63.6895801 C61.1404082,65.6759659 63.3362801,64.3479603 63.1254545,62.4989267 C62.537607,57.3408566 59.6068573,52.1624381 55.8610065,48.5762875 C51.1365963,44.0535717 44.7327,41.2037146 38.084027,41.2037146" id="Fill-18"></path>
                </g>
                <ellipse id="Touch" fill="#FFFFFF" cx="99.0170212" cy="170.349031" rx="17.5387834" ry="17.6587348"></ellipse>
                <g id="Camera" transform="translate(81.478238, 0.372988)" fill="#FFFFFF">
                    <ellipse id="Lens" cx="2.33850446" cy="2.35449797" rx="2.33850446" ry="2.35449797"></ellipse>
                    <rect id="Sensor" x="10.52327" y="0" width="24.5542968" height="4.70899595" rx="2"></rect>
                </g>
                <g id="Rows" transform="translate(86.861317, 23.621706)">
                    <g id="Row">
                        <rect id="Container" fill="#FFFFFF" x="0" y="0" width="68.1553722" height="33.4098107" rx="4"></rect>
                        <g id="Text-Stuff" transform="translate(9.000000, 10.022943)" fill="#DDE3E9">
                            <rect id="Label" x="0" y="0" width="10.6553722" height="5.0114716" rx="2.5057358"></rect>
                            <rect id="Label" x="0" y="8.35245267" width="7.15223612" height="5.0114716" rx="2.5057358"></rect>
                        </g>
                        <g id="Check" transform="translate(53.871592, 9.704905)">
                            <circle id="Background" fill="#DDE3E9" cx="7" cy="7" r="7"></circle>
                            <circle id="Indicator" fill="#F2F2F2" cx="7" cy="7" r="3"></circle>
                        </g>
                    </g>
                    <g id="Row" transform="translate(0.000000, 38.359412)">
                        <rect id="Background" fill="#FFFFFF" x="0" y="0" width="68.1553722" height="28.3066729" rx="4"></rect>
                        <g id="Text" transform="translate(39.000000, 8.492002)" fill="#DDE3E9">
                            <rect id="Name" x="0" y="0" width="10.6553722" height="4.24600093" rx="2.12300047"></rect>
                            <rect id="Name" x="0" y="7.07666822" width="7.15223612" height="4.24600093" rx="2.12300047"></rect>
                        </g>
                        <circle id="Avatar" fill="#C5CFD6" cx="21" cy="14.1533364" r="12"></circle>
                    </g>
                    <g id="Row" transform="translate(0.000000, 69.294422)">
                        <rect id="Container" fill="#FFFFFF" x="0" y="0" width="68.1553722" height="25.9854083" rx="4"></rect>
                        <g id="Text-Stuff" transform="translate(9.000000, 7.795622)">
                            <rect id="Label" fill="#DDE3E9" x="0" y="0" width="10.6553722" height="3.89781125" rx="1.94890562"></rect>
                            <rect id="Label" fill="#AFB9C5" x="0" y="6.49635208" width="7.15223612" height="3.89781125" rx="1.94890562"></rect>
                        </g>
                        <g id="Check" transform="translate(53.871592, 5.992704)">
                            <circle id="Background" fill="#DDE3E9" cx="7" cy="7" r="7"></circle>
                            <circle id="Indicator" fill="#F2F2F2" cx="7" cy="7" r="3"></circle>
                        </g>
                    </g>
                    <g id="Row" transform="translate(0.000000, 100.229432)">
                        <rect id="Background" fill="#FFFFFF" x="0" y="0" width="68.1553722" height="28.3066729" rx="4"></rect>
                        <g id="Text" transform="translate(39.000000, 8.492002)" fill="#DDE3E9">
                            <rect id="Name" x="0" y="0" width="10.6553722" height="4.24600093" rx="2.12300047"></rect>
                            <rect id="Name" x="0" y="7.07666822" width="7.15223612" height="4.24600093" rx="2.12300047"></rect>
                        </g>
                        <circle id="Avatar" fill="#C5CFD6" cx="21" cy="14.1533364" r="12"></circle>
                    </g>
                </g>
            </g>
            <g id="Web" transform="translate(165.000000, 44.000000)">
                <rect id="Container" fill="#F2F2F2" x="0" y="0" width="222" height="232" rx="8"></rect>
                <rect id="Background" fill="#FFFFFF" x="165.008955" y="28.8323699" width="46.3880597" height="54.3121387" rx="8"></rect>
                <g id="Profile-Info" transform="translate(171.635821, 38.890173)" fill="#DDE3E9">
                    <ellipse id="Avatar" cx="16.5671642" cy="10.7283237" rx="10.6029851" ry="10.7283237"></ellipse>
                    <rect id="Name" x="0" y="24.1387283" width="33.1343284" height="4.02312139" rx="2.01156069"></rect>
                    <rect id="Name" x="5.30149254" y="30.8439306" width="22.5313433" height="4.02312139" rx="2.01156069"></rect>
                </g>
                <path d="M8,0 L214,0 C218.418278,-8.11624501e-16 222,3.581722 222,8 L222,18.1040462 L0,18.1040462 L0,8 C-5.41083001e-16,3.581722 3.581722,-9.64732338e-16 8,-1.77635684e-15 Z" id="Header" fill="#8991DC"></path>
                <g id="Buttons" transform="translate(9.000000, 4.000000)" fill="#F2F2F2">
                    <circle id="buttons" cx="4" cy="4" r="4"></circle>
                    <circle id="buttons" cx="16" cy="4" r="4"></circle>
                    <circle id="buttons" cx="28" cy="4" r="4"></circle>
                </g>
                <g id="Components" transform="translate(165.008955, 88.508671)">
                    <rect id="Background" fill="#FFFFFF" x="0" y="0" width="46.3880597" height="130.080925" rx="8"></rect>
                    <g id="Rows" transform="translate(18.000000, 18.000000)">
                        <rect id="Data" fill="#DDE3E9" x="0" y="0" width="10.3880597" height="16.5574094" rx="4"></rect>
                        <rect id="Data" fill="#AFB9C5" x="0" y="21.6519968" width="10.3880597" height="15.9205859" rx="4"></rect>
                        <rect id="Data" fill="#DDE3E9" x="0" y="42.6671703" width="10.3880597" height="15.9205859" rx="4"></rect>
                        <rect id="Data" fill="#DDE3E9" x="0" y="84.6975171" width="10.3880597" height="15.9205859" rx="4"></rect>
                        <rect id="Data" fill="#C5CFD6" x="0" y="63.6823437" width="10.3880597" height="15.9205859" rx="4"></rect>
                    </g>
                </g>
                <g id="Rows" transform="translate(16.000000, 44.000000)">
                    <g id="Row">
                        <rect id="Container" fill="#FFFFFF" x="0" y="0" width="112" height="29.2582781" rx="4"></rect>
                        <g id="Text-Stuff" transform="translate(9.000000, 8.777483)" fill="#DDE3E9">
                            <rect id="Label" x="0" y="0" width="54" height="4.38874172" rx="2.19437086"></rect>
                            <rect id="Label" x="0" y="7.31456954" width="36.2465753" height="4.38874172" rx="2.19437086"></rect>
                        </g>
                        <g id="Check" transform="translate(93.030534, 7.629139)">
                            <circle id="Background" fill="#DDE3E9" cx="7" cy="7" r="7"></circle>
                            <circle id="Indicator" fill="#F2F2F2" cx="7" cy="7" r="3"></circle>
                        </g>
                    </g>
                    <g id="Row" transform="translate(0.000000, 34.238411)">
                        <rect id="Container" fill="#FFFFFF" x="0" y="0" width="112" height="24.2781457" rx="4"></rect>
                        <g id="Text-Stuff" transform="translate(9.000000, 7.283444)" fill="#DDE3E9">
                            <rect id="Label" x="0" y="0" width="54" height="3.64172185" rx="1.82086093"></rect>
                            <rect id="Label" x="0" y="6.06953642" width="36.2465753" height="3.64172185" rx="1.82086093"></rect>
                        </g>
                        <g id="Check" transform="translate(93.030534, 5.139073)">
                            <circle id="Background" fill="#DDE3E9" cx="7" cy="7" r="7"></circle>
                            <circle id="Indicator" fill="#F2F2F2" cx="7" cy="7" r="3"></circle>
                        </g>
                    </g>
                    <g id="Row" transform="translate(0.000000, 63.496689)">
                        <rect id="Container" fill="#FFFFFF" x="0" y="0" width="112" height="24.2781457" rx="4"></rect>
                        <g id="Text-Stuff" transform="translate(9.000000, 7.283444)" fill="#DDE3E9">
                            <rect id="Label" x="0" y="0" width="54" height="3.64172185" rx="1.82086093"></rect>
                            <rect id="Label" x="0" y="6.06953642" width="36.2465753" height="3.64172185" rx="1.82086093"></rect>
                        </g>
                        <g id="Check" transform="translate(93.030534, 5.139073)">
                            <circle id="Background" fill="#DDE3E9" cx="7" cy="7" r="7"></circle>
                            <circle id="Indicator" fill="#AFB9C5" cx="7" cy="7" r="3"></circle>
                        </g>
                    </g>
                    <g id="Row" transform="translate(0.000000, 151.271523)">
                        <rect id="Container" fill="#FFFFFF" x="0" y="0" width="112" height="24.2781457" rx="4"></rect>
                        <g id="Text-Stuff" transform="translate(9.000000, 7.283444)" fill="#DDE3E9">
                            <rect id="Label" x="0" y="0" width="54" height="3.64172185" rx="1.82086093"></rect>
                            <rect id="Label" x="0" y="6.06953642" width="36.2465753" height="3.64172185" rx="1.82086093"></rect>
                        </g>
                        <g id="Check" transform="translate(93.030534, 5.139073)">
                            <circle id="Background" fill="#DDE3E9" cx="7" cy="7" r="7"></circle>
                            <circle id="Indicator" fill="#F2F2F2" cx="7" cy="7" r="3"></circle>
                        </g>
                    </g>
                    <g id="Row" transform="translate(0.000000, 122.013245)">
                        <rect id="Container" fill="#FFFFFF" x="0" y="0" width="112" height="24.2781457" rx="4"></rect>
                        <g id="Text-Stuff" transform="translate(9.000000, 7.283444)" fill="#DDE3E9">
                            <rect id="Label" x="0" y="0" width="54" height="3.64172185" rx="1.82086093"></rect>
                            <rect id="Label" x="0" y="6.06953642" width="36.2465753" height="3.64172185" rx="1.82086093"></rect>
                        </g>
                        <g id="Check" transform="translate(93.030534, 5.139073)">
                            <circle id="Background" fill="#DDE3E9" cx="7" cy="7" r="7"></circle>
                            <circle id="Indicator" fill="#F2F2F2" cx="7" cy="7" r="3"></circle>
                        </g>
                    </g>
                    <g id="Row" transform="translate(0.000000, 92.754967)">
                        <rect id="Container" fill="#FFFFFF" x="0" y="0" width="112" height="24.2781457" rx="4"></rect>
                        <g id="Text-Stuff" transform="translate(9.000000, 7.283444)" fill="#DDE3E9">
                            <rect id="Label" x="0" y="0" width="54" height="3.64172185" rx="1.82086093"></rect>
                            <rect id="Label" x="0" y="6.06953642" width="36.2465753" height="3.64172185" rx="1.82086093"></rect>
                        </g>
                        <g id="Check" transform="translate(93.030534, 5.139073)">
                            <circle id="Background" fill="#DDE3E9" cx="7" cy="7" r="7"></circle>
                            <circle id="Indicator" fill="#F2F2F2" cx="7" cy="7" r="3"></circle>
                        </g>
                    </g>
                </g>
            </g>
            <path d="M443.651869,158.255476 C441.012211,156.468327 437.501974,156 434.343131,156 C422.005285,156 410.408283,160.570396 400.389837,167.380385 C394.900227,171.111836 389.989355,175.863691 385.653762,180.811203 C383.151251,183.667129 380.919822,186.756737 379.340031,190.192897 C378.273986,192.512149 377.542285,194.928627 377.04633,197.421155 C376.441892,200.45878 375.961752,203.558014 375.74454,206.646178 C375.659039,207.862239 374.951308,214.315087 376.976397,214.424347 C376.964783,214.583424 376.962064,214.735041 376.97442,214.871014 C372.577295,221.735633 369.860538,229.780695 367.341223,237.40821 C365.149333,244.045645 363.196154,250.739154 361.928218,257.605698 C360.258971,266.645894 359.162532,275.822063 358.641124,284.992216 C358.529182,286.96299 358.45233,288.934727 358.386104,290.908148 C358.330009,292.591333 358.273173,294.274517 358.21782,295.957701 C358.156042,297.844003 357.823428,300.015729 358.123917,301.890961 C358.385362,303.524088 359.801071,303.276929 359.863591,301.651744 C359.939207,299.689152 359.926852,297.72271 360.012847,295.758674 C360.12726,293.152073 360.245133,290.545472 360.37289,287.939593 C361.262249,269.837301 364.598766,252.001181 370.756321,234.901724 C373.248207,227.981994 376.103595,221.431438 379.773466,215.030332 C383.000018,209.40223 386.881171,203.953661 390.848319,198.87908 C394.704267,193.947692 398.713177,189.130378 403.437726,184.95226 C407.271681,181.561825 411.488907,178.608191 415.824006,175.85984 C421.330173,172.369291 426.825714,168.963454 432.790027,166.283933 C435.890304,164.891227 439.049147,163.644361 442.173641,162.30797 C442.735822,162.067549 443.33853,161.834349 443.879213,161.555904 C445.682889,160.627192 445.089077,159.228469 443.651869,158.255476" id="Fill-1" fill="#FFA900"></path>
            <path d="M403.788134,221 C398.803274,221 394.367527,221.647724 389.774526,223.628744 C385.809844,225.338482 382.196724,227.60189 378.688748,230.066097 C373.754376,233.531806 369.867742,237.565463 367.147191,242.90998 C365.521854,246.10282 364.329601,250.620797 365.42111,254.103277 C366.706928,258.204925 370.237368,261.62576 374.88711,260.90302 C377.762367,260.456548 380.398154,258.553264 382.583489,256.761937 C385.197738,254.618873 387.290434,252.042028 389.018367,249.180076 C391.837115,244.511613 393.493486,239.233953 395.887951,234.355626 C397.024158,232.040318 398.122152,229.708466 399.483006,227.508063 C400.156717,226.4184 400.873968,225.339162 401.895999,224.529394 C402.442796,224.096293 404.748328,223.346583 403.866644,222.373864 C416.793606,222.543614 428.245536,232.471605 430.727081,244.760458 C430.958213,245.905874 431.138858,247.060581 431.329692,248.213022 C431.450122,248.940749 431.401487,251.624339 432.052038,252.089168 C433.486772,253.114693 432.883698,249.999363 432.822093,249.550851 C432.662987,248.391611 432.493228,247.233277 432.315131,246.076983 C431.346136,239.787624 428.546147,233.940883 423.87672,229.455541 C418.537056,224.326555 411.332586,221 403.788134,221" id="Fill-20" fill="#FFA900" transform="translate(399.000000, 241.000000) scale(-1, 1) translate(-399.000000, -241.000000) "></path>
            <g id="human-collab" transform="translate(45.000000, 136.000000)">
                <g id="Group-2">
                    <g id="Group" transform="translate(0.000000, 38.528131)">
                        <g id="Head/Front/Short-Beard" transform="translate(44.865967, 0.000000)">
                            <g id="Head" stroke-width="1" transform="translate(32.558824, 18.778846)" fill="#B28B67">
                                <path d="M4.98166513,20.8930576 C2.20336674,17.6166027 0.322956273,13.6012621 0.637173966,9.10195764 C1.54252263,-3.86179131 19.5042611,-1.00993171 22.9981911,5.53305552 C26.4921211,12.0760427 26.0769514,28.6728725 21.5613582,29.8422868 C19.7605458,30.3086476 15.9242801,29.1662504 12.0198566,26.8018392 L14.4705882,44.2211538 L0,44.2211538 L4.98166513,20.8930576 Z"></path>
                            </g>
                            <path d="M45.3021694,29.3125243 C45.8560818,37.06466 47.3213265,40.9407279 49.6979037,40.9407279 C53.2629781,40.9407279 56.2876905,38.6668826 57.8519596,38.6668826 C58.9922586,38.6668826 58.7376648,40.1005544 57.981815,41.1635201 C57.3582146,42.040501 54.3213325,42.8858057 54.3213325,44.2454206 C54.3213325,45.6050355 56.7207212,44.5531764 56.7207212,45.3595375 C56.7207212,46.693357 57.1424102,49.2011763 54.8382381,49.2011763 C52.506339,49.2011763 45.8203715,48.3474017 44.6745777,44.8702187 C43.935116,42.6261465 43.4570008,37.9760091 43.2402322,30.9198066 C43.0987717,30.9029182 42.9548074,30.8942308 42.8088235,30.8942308 C40.8108522,30.8942308 39.1911765,32.5215035 39.1911765,34.5288462 C39.1911765,35.5478822 39.6085877,36.4689694 40.2810017,37.1289373 C39.4439272,38.316004 38.5058069,39.5560542 37.4308211,40.8356248 C33.3923326,38.4013315 30.3955445,31.2752422 34.3438225,24.4296302 C35.435139,21.0760712 37.9057267,19.2848093 40.8235503,18.453069 C43.1871379,17.4597354 45.6407654,17.3477362 47.7119764,17.9432307 C51.7721236,18.2931184 55.3976403,19.5369744 56.4251409,20.2756698 C56.4251409,24.1375845 55.6803335,25.2834032 49.3186622,25.1824036 C47.7554965,26.0118133 46.5538135,27.4400557 45.3021694,29.3125243 Z" id="Hair" fill="#191847"></path>
                        </g>
                        <g id="Bottom/Sitting/Skinny-Jeans-1" transform="translate(0.000000, 114.680823)">
                            <g id="Objects/Seat/Cube" transform="translate(6.066667, 25.656904)" stroke-width="1">
                                <g id="Seat" transform="translate(33.426724, 0.000000)">
                                    <polygon id="Seat-Stuff" fill="#C5CFD6" points="16.7878985 0 63.7400181 0 69.8922414 76 0 76"></polygon>
                                    <polygon id="Seat-Stuff" fill-opacity="0.1" fill="#000000" points="16.7878985 0 31.2283403 0 39.8712589 76 0 76"></polygon>
                                </g>
                            </g>
                            <path d="M156.491665,12.6794746 C161.488656,9.65808137 169.872423,13.5399514 169.866667,17.861124 C169.849444,30.7900625 158.13172,91.7241032 157.519922,95.5760659 C156.908125,99.4280286 150.354235,100.445477 149.97258,95.5886895 C149.365304,87.86072 148.237059,61.1080992 149.365914,48.7253022 C149.831881,43.6139437 150.333703,38.7460565 150.827737,34.4032168 C144.679021,45.5841341 135.169719,61.5924504 122.299831,82.4281656 L115.313121,79.2139645 C120.799567,61.0121774 125.298371,48.1622001 128.809531,40.6640325 C134.821491,27.8253492 140.458686,16.8307285 142.831199,12.9579626 C146.563165,6.86609922 153.059247,8.99164062 156.491665,12.6794746 Z" id="Skin" fill="#B28B67"></path>
                            <path d="M126.749603,75.293693 L129.719357,13.3402347 C131.935066,2.63140684 150.90057,7.6459539 150.905509,13.3874709 C150.916722,26.4224919 143.227859,71.4341446 143.2312,75.3177128 L126.749603,75.293693 Z" id="LegLower" fill="#1F28CF" transform="translate(138.827562, 41.186432) rotate(20.000000) translate(-138.827562, -41.186432) "></path>
                            <g id="Accessories/Shoe/Flat-Sneaker" transform="translate(130.736667, 81.246862) rotate(30.000000) translate(-130.736667, -81.246862) translate(112.233333, 69.029289)" fill="#E4E4E4">
                                <path d="M1.32228382,16.0738209 C0.845132858,17.4542366 0.606557377,18.5174304 0.606557377,19.2634025 C0.606557377,20.3453742 0.788775829,21.9242401 1.15321273,24 C2.4220935,24 13.8257386,24 35.364148,24 C36.2531689,21.0927044 35.7399745,19.523149 33.8245647,19.2913339 C31.9091549,19.0595188 30.3179914,18.8502083 29.0510743,18.6634025 L13.5141387,11.8118396 C13.0088079,11.5889961 12.418506,11.8179973 12.1956625,12.3233281 C12.1929091,12.3295717 12.1902197,12.3358434 12.1875948,12.3421421 L11.3203096,14.423217 C9.54714107,15.2415913 8.10625756,15.6507784 6.99765905,15.6507784 C6.23529685,15.6507784 5.22708343,15.3929942 3.97301879,14.8774257 L3.97301732,14.8774292 C2.9514156,14.4574304 1.78276746,14.9451259 1.36276864,15.9667277 C1.34825449,16.0020318 1.33475402,16.0377441 1.32228382,16.0738209 Z" id="shoe"></path>
                            </g>
                            <g id="Accessories/Shoe/Flat-Sneaker" transform="translate(146.813333, 76.970711)" fill="#E4E4E4">
                                <path d="M1.32228382,16.0738209 C0.845132858,17.4542366 0.606557377,18.5174304 0.606557377,19.2634025 C0.606557377,20.3453742 0.788775829,21.9242401 1.15321273,24 C2.4220935,24 13.8257386,24 35.364148,24 C36.2531689,21.0927044 35.7399745,19.523149 33.8245647,19.2913339 C31.9091549,19.0595188 30.3179914,18.8502083 29.0510743,18.6634025 L13.5141387,11.8118396 C13.0088079,11.5889961 12.418506,11.8179973 12.1956625,12.3233281 C12.1929091,12.3295717 12.1902197,12.3358434 12.1875948,12.3421421 L11.3203096,14.423217 C9.54714107,15.2415913 8.10625756,15.6507784 6.99765905,15.6507784 C6.23529685,15.6507784 5.22708343,15.3929942 3.97301879,14.8774257 L3.97301732,14.8774292 C2.9514156,14.4574304 1.78276746,14.9451259 1.36276864,15.9667277 C1.34825449,16.0020318 1.33475402,16.0377441 1.32228382,16.0738209 Z" id="shoe"></path>
                            </g>
                            <path d="M171.54736,22.2561592 C171.54736,38.4853556 163.893184,76.3416855 163.88834,79.9152146 L147.42,79.9279521 C149.830455,46.1491223 150.685184,29.0777588 149.984188,28.7138615 C148.932693,28.1680155 106.880008,32.9416505 94.2677238,32.9416505 C76.0807473,32.9416505 68.5571593,21.3932133 67.9466667,-4.40536496e-13 L103.97439,-4.40536496e-13 C111.309958,0.790395701 149.572954,8.56162128 163.783072,11.233089 C169.866667,12.3767901 171.54736,17.7854334 171.54736,22.2561592 Z" id="Leg-and-Butt" fill="#2B44FF"></path>
                        </g>
                        <g id="Body/Jacket" transform="translate(12.125937, 50.020359)">
                            <path d="M117.487826,54.3313706 L134.639487,71.17839 C139.629988,73.3217186 143.718993,75.6883861 146.906501,78.2783926 C147.623324,79.1489819 148.403703,80.817076 145.031086,80.0706278 C141.65847,79.3241796 138.077642,78.6917485 137.443765,79.7960783 C136.809888,80.900408 138.677659,82.5926337 137.506175,84.0379172 C136.725187,85.0014395 134.09866,81.9366636 129.626594,74.8435893 L111.791135,64.2560492 L117.487826,54.3313706 Z M41.3583158,56.7073135 L54.0110335,56.7574123 C46.1985641,82.1505574 41.9809916,95.6240012 41.3583158,97.1777435 C39.9572953,100.673664 42.9220431,105.99789 44.1898869,108.859089 C40.0605618,110.719525 40.5005458,103.829572 35.2915134,106.269637 C30.5369502,108.496816 26.9201657,112.532314 21.4269549,109.119563 C20.7515969,108.699986 20.0115146,107.1202 21.7996471,105.885681 C26.2545372,102.810045 32.6743037,97.4271265 33.5417152,95.6552973 C34.7245859,93.2390916 37.3301194,80.2564304 41.3583158,56.7073135 Z" id="Skin" fill="#B28B67"></path>
                            <path d="M73.8547118,5.61238562 L78.9915474,4.25533955 C89.9471939,26.0555679 107.420156,45.2060714 131.410434,61.70685 L116.31197,83.868735 C91.6398033,59.5438545 75.4768348,33.634305 73.8547118,5.61238562 Z" id="Coat-Back" fill="#191847" transform="translate(102.632573, 44.062037) rotate(5.000000) translate(-102.632573, -44.062037) "></path>
                            <path d="M54.4921875,69.4973262 L101.113281,69.4973262 C90.3122452,43.0549023 84.9117272,20.5923769 84.9117272,2.10975002 L70.8484463,0 C59.7960289,17.8976384 56.6747972,39.933255 54.4921875,69.4973262 Z" id="Shirt" fill="#DDE3E9"></path>
                            <path d="M70.5506929,0.0100099723 C70.5525393,0.00667273476 70.5543856,0.00333607727 70.5562317,-2.72120435e-14 L71.4742249,-4.26336763e-14 C72.5726832,0.0380852271 74.2457763,0.106703326 76.493504,0.205854296 L79.8916973,9.98376645 C80.2511508,21.9053273 82.3503047,45.9304892 86.1891588,82.0592521 L55.6280963,82.0592521 C55.7082119,84.5545167 55.8403096,87.0730904 56.0243896,89.6149733 L33.3007813,89.6149733 C36.6998322,51.0036995 49.1127414,21.1320418 70.5395087,1.42108547e-14 L70.5506929,0.0100099685 Z" id="Coat-Front" fill="#2F3676"></path>
                            <path d="M57.646819,50.1314093 C58.5165829,65.6858808 60.6942057,76.4085661 64.1796875,82.2994652 L55.635967,82.2994652 C55.261926,71.1084782 55.9322101,60.3858053 57.6468183,50.1314136 Z" id="Shade" fill-opacity="0.1" fill="#000000"></path>
                            <polygon id="Light" fill-opacity="0.2" fill="#FFFFFF" points="62.4304271 63.4010695 77.5 56.3472566 77.5 63.4010695"></polygon>
                        </g>
                    </g>
                    <g id="Head/Front/Curly" transform="translate(264.197901, 31.745009) scale(-1, 1) translate(-264.197901, -31.745009) translate(222.908546, 0.000000)">
                        <g id="Head" stroke-width="1" transform="translate(32.955882, 18.778846)" fill="#D4A181">
                            <path d="M5.04241715,20.8930576 C2.23023707,17.6166027 0.326894764,13.6012621 0.64494438,9.10195764 C1.56133389,-3.86179131 19.742118,-1.00993171 23.2786569,5.53305552 C26.8151958,12.0760427 26.394963,28.6728725 21.8243016,29.8422868 C20.0015281,30.3086476 16.1184787,29.1662504 12.1664403,26.8018392 L14.6470588,44.2211538 L0,44.2211538 L5.04241715,20.8930576 Z"></path>
                        </g>
                        <path d="M62.723405,15.241419 C62.4200948,14.1831773 61.6042671,13.2771018 60.5048028,13.0082946 C60.2381843,12.9430919 59.9628354,12.9167562 59.6884923,12.927736 C59.5900845,12.9316346 59.5624852,12.9598003 59.5164999,12.8914946 C59.482383,12.840852 59.4816186,12.7171299 59.4675776,12.657616 C59.4238855,12.47255 59.3692502,12.2897914 59.3018211,12.1117668 C59.0717736,11.5045737 58.6851828,10.967198 58.2191336,10.5145183 C57.3474234,9.66763848 56.1695868,9.0831609 54.9458856,8.97742027 C54.2761409,8.91957719 53.6112643,9.0275854 52.9780906,9.24384052 C52.650279,9.35578715 52.3324048,9.49518338 52.0228183,9.64929896 C51.9296004,9.69568481 51.6271753,9.92287998 51.5336356,9.90816062 C51.4303194,9.89192956 51.2226812,9.63708588 51.1386765,9.57311637 C50.1003248,8.78236898 48.8180857,8.47147242 47.5247426,8.48098032 C46.0649189,8.49168169 44.6592073,8.56408498 43.4417018,9.44740516 C43.1839747,9.63442048 42.9385183,9.83917859 42.7048097,10.0547574 C42.5817395,10.1682555 42.4625316,10.2860103 42.3488356,10.4086583 C42.2802397,10.4826529 42.2134544,10.5583183 42.1491634,10.6360126 C42.0400538,10.7678901 42.0575548,10.8112127 41.9048335,10.7191969 C41.3188924,10.3658529 40.6398943,10.2005983 39.9559879,10.2840212 C39.5498845,10.3335896 39.1547645,10.4546066 38.7795997,10.6138938 C38.6518626,10.6681167 38.3561964,10.8844116 38.2200508,10.8865201 C38.0849915,10.8885887 37.7934693,10.6880873 37.6543465,10.6371265 C36.9029305,10.3617951 36.093017,10.293927 35.3032195,10.4211499 C34.4885184,10.5524306 33.6882204,10.8750628 32.9979573,11.3209001 C32.6659615,11.535365 32.37629,11.772983 32.1436274,12.0918758 C32.0431677,12.2295614 31.9523638,12.3752034 31.8385068,12.5028639 C31.7718421,12.5776144 31.6398404,12.6543141 31.604074,12.7489158 C31.6254775,12.6922662 30.7130927,12.3431391 30.6269959,12.3208214 C30.1683091,12.2019129 29.701254,12.2260208 29.2521022,12.3727369 C28.4075085,12.6486253 27.6811572,13.2673154 27.0841925,13.9016399 C26.7775832,14.2274547 26.509275,14.5876014 26.2815207,14.9712991 C26.1723709,15.155092 26.0725549,15.3441362 25.9812279,15.5371984 C25.9369725,15.630726 25.9076433,15.7477249 25.8493469,15.8319833 C25.7741932,15.9405484 25.7237019,15.9426171 25.5875965,15.9899577 C24.8963678,16.2303207 24.2662518,16.6371715 23.7864029,17.1869194 C23.3010422,17.743112 22.9861049,18.4280392 22.8540629,19.1493271 C22.8462981,19.1918143 22.8416714,19.3678896 22.8166068,19.3908836 C22.7822485,19.4225501 22.6432464,19.4085468 22.590663,19.4146733 C22.4085723,19.4358771 22.227769,19.4674242 22.0493796,19.5093545 C21.7205219,19.5866112 21.4004349,19.7003082 21.0976477,19.8490135 C19.9173167,20.4286774 19.0732461,21.5154031 18.6601423,22.7382231 C18.2266811,24.0215118 18.2343654,25.4917363 18.7524349,26.7510762 C18.8361178,26.9544817 18.9356924,27.15192 19.0526472,27.3386966 C19.1244616,27.4533484 19.1476353,27.4536269 19.1010063,27.5739277 C19.0490263,27.7077545 18.9540784,27.8378019 18.8923623,27.9685654 C18.6910004,28.3953073 18.5502281,28.8479074 18.461315,29.3101746 C18.3154332,30.0684599 18.243136,30.8653337 18.3870464,31.6293874 C18.4538721,31.9841635 18.5703039,32.3309832 18.7479289,32.6469719 C18.8384915,32.8080891 18.944463,32.9608919 19.0641134,33.1022374 C19.1262318,33.1756353 19.1922126,33.2457312 19.2612107,33.3128833 C19.3006785,33.3512332 19.352417,33.3848092 19.3859706,33.4276544 C19.4678833,33.532122 19.4851027,33.4462326 19.4428589,33.5996321 C19.3837981,33.8140971 19.2499055,34.0256977 19.1679124,34.2343942 C19.0834248,34.4494559 19.0070642,34.6674614 18.9372212,34.8876151 C18.7957649,35.3334125 18.6761547,35.7872857 18.6013631,36.2489562 C18.4577343,37.1353396 18.4829599,38.0798047 18.9053573,38.8933074 C19.0859595,39.2412809 19.3450545,39.5465284 19.6593079,39.7839873 C19.8131154,39.9001508 19.9797168,40.0002822 20.1544853,40.0825117 C20.2442834,40.1248397 20.3589451,40.1429803 20.3999014,40.229188 C20.4439959,40.3218801 20.3785382,40.5059516 20.363612,40.6095838 C20.2337426,41.5111241 20.1686068,42.4576977 20.4386048,43.341177 C20.6872797,44.1549184 21.2347991,44.8733819 21.9456611,45.3490556 C23.3246987,46.2717998 25.1835852,46.2197649 26.6325865,45.4810524 C27.010286,45.2884676 27.363645,45.0493776 27.678864,44.7673628 C28.4815357,45.8398863 30.1332668,45.8059522 31.3063963,45.5003467 C32.76795,45.1196326 33.9407174,44.1108797 34.6164164,42.7855016 C35.5403479,43.9019047 37.4793768,43.5396894 38.1200739,42.3285652 C38.2768989,42.0321493 38.3699156,41.7054593 38.4156998,41.3748707 C38.4397989,41.2010232 38.4244302,41.025664 38.4425347,40.8532089 C38.4656279,40.633453 38.6135213,40.419903 38.6985319,40.2073079 C38.8640872,39.7935748 38.9668803,39.3661964 38.9713059,38.9199216 C38.9735991,38.6869183 38.9438675,38.4598425 38.9215387,38.2287089 C38.9014629,38.0206489 38.9595983,37.826791 38.9926289,37.6214362 C38.6177859,37.6827005 38.1611107,37.5823702 37.8079529,37.4744814 C37.4613931,37.3686214 37.1368,37.0897891 36.8921885,36.8351444 C36.3242312,36.2438243 35.9772691,35.4686714 35.7399798,34.6971786 C35.2190941,33.0038963 35.4326062,30.9723474 37.1484674,30.0430392 C37.9477998,29.6101311 40.342499,29.6115511 41.2945394,29.825509 C42.2955682,30.0504764 43.4303966,32.2429058 43.4862388,32.4489767 C43.5207983,32.5765179 43.503418,32.734373 43.6214591,32.8193474 C43.8808761,33.0062036 44.3087048,32.6819403 44.5000489,32.5218972 C44.8302342,32.2456906 45.0657533,31.8781842 45.2697303,31.5056652 C45.7141749,30.6941118 46.0724825,29.8238004 46.325583,28.9353483 C46.520709,28.2503813 46.6454689,27.5440514 46.9005005,26.8765487 C47.1542849,26.212348 47.5543535,25.6186808 48.1763829,25.2424223 C48.8530475,24.833105 49.6286832,24.6175262 50.3715297,24.3602956 C51.1078586,24.1053724 51.8314742,23.7937995 52.4022478,23.2528833 C52.5277319,23.133935 52.6496353,23.0075475 52.7506583,22.8675147 C52.8303984,22.7569605 52.9092132,22.5453201 53.0307143,22.4752241 C53.2196043,22.3661816 53.495275,22.6497479 53.6586175,22.7527038 C54.4644676,23.2607203 55.1367872,23.9692383 55.6790362,24.7432374 C56.2182678,25.5130197 56.660733,26.2537213 57.0202878,27.1132916 C57.2869867,27.7507986 57.4534352,28.5672452 57.9225019,29.0897026 C58.1319102,29.3229844 59.6884923,29.4641136 60.1926817,29.2604471 C60.6968711,29.0567806 61.2619317,28.5279406 61.4311482,28.1965165 C61.6043878,27.8572951 61.6457867,27.4846568 61.5717595,27.1132916 C61.5282284,26.8948087 61.4393153,26.6907269 61.3906746,26.4761426 C61.3497183,26.2958902 61.3125438,26.1255038 61.2241537,25.9603686 C61.056627,25.6474432 60.7704155,25.4225156 60.4252638,25.3284709 C60.7844565,24.9997519 61.082094,24.6065066 61.2880424,24.1669152 C61.5020372,23.7102175 61.6834038,23.1548205 61.7348607,22.653567 C61.7767021,22.2464377 61.7121295,21.8246288 61.4875939,21.4747459 C61.2520346,21.1077169 60.8347467,20.8682688 60.4737033,20.6393233 C61.0252057,20.2110299 61.4972094,19.6901638 61.8852485,19.1134835 C62.639883,17.9920281 63.1066565,16.5784135 62.723405,15.241419 Z" id="hair" fill="#191847"></path>
                    </g>
                    <g id="Bottom/Standing/Shorts" transform="translate(269.055472, 188.028131) scale(-1, 1) translate(-269.055472, -188.028131) translate(178.110945, 115.041742)">
                        <polygon id="Leg" fill="#D4A181" points="77.6533333 9.9475983e-14 100.482708 75.1528408 111.541827 139.065491 120.212939 139.065491 108.527191 9.9475983e-14"></polygon>
                        <path d="M69.4862212,0 C71.0368477,41.2629489 69.2119699,62.5471252 68.8649211,66.2960435 C68.5178724,70.0449618 63.7656391,94.3531489 52.5153037,140.324002 L61.755022,137.128636 C79.5351281,94.9665605 85.5939544,73.0541851 87.633198,67.5178008 C89.6724415,61.9814166 95.0885712,39.475483 103.881587,0 L69.4862212,0 Z" id="Leg" fill="#D4A181"></path>
                        <g id="Accessories/Shoe/Flat-Sneaker" transform="translate(50.960000, 121.564854)" fill="#E4E4E4">
                            <path d="M1.32228382,16.0738209 C0.845132858,17.4542366 0.606557377,18.5174304 0.606557377,19.2634025 C0.606557377,20.3453742 0.788775829,21.9242401 1.15321273,24 C2.4220935,24 13.8257386,24 35.364148,24 C36.2531689,21.0927044 35.7399745,19.523149 33.8245647,19.2913339 C31.9091549,19.0595188 30.3179914,18.8502083 29.0510743,18.6634025 L13.5141387,11.8118396 C13.0088079,11.5889961 12.418506,11.8179973 12.1956625,12.3233281 C12.1929091,12.3295717 12.1902197,12.3358434 12.1875948,12.3421421 L11.3203096,14.423217 C9.54714107,15.2415913 8.10625756,15.6507784 6.99765905,15.6507784 C6.23529685,15.6507784 5.22708343,15.3929942 3.97301879,14.8774257 L3.97301732,14.8774292 C2.9514156,14.4574304 1.78276746,14.9451259 1.36276864,15.9667277 C1.34825449,16.0020318 1.33475402,16.0377441 1.32228382,16.0738209 Z" id="shoe"></path>
                        </g>
                        <g id="Accessories/Shoe/Flat-Sneaker" transform="translate(107.986667, 121.564854)" fill="#E4E4E4">
                            <path d="M1.32228382,16.0738209 C0.845132858,17.4542366 0.606557377,18.5174304 0.606557377,19.2634025 C0.606557377,20.3453742 0.788775829,21.9242401 1.15321273,24 C2.4220935,24 13.8257386,24 35.364148,24 C36.2531689,21.0927044 35.7399745,19.523149 33.8245647,19.2913339 C31.9091549,19.0595188 30.3179914,18.8502083 29.0510743,18.6634025 L13.5141387,11.8118396 C13.0088079,11.5889961 12.418506,11.8179973 12.1956625,12.3233281 C12.1929091,12.3295717 12.1902197,12.3358434 12.1875948,12.3421421 L11.3203096,14.423217 C9.54714107,15.2415913 8.10625756,15.6507784 6.99765905,15.6507784 C6.23529685,15.6507784 5.22708343,15.3929942 3.97301879,14.8774257 L3.97301732,14.8774292 C2.9514156,14.4574304 1.78276746,14.9451259 1.36276864,15.9667277 C1.34825449,16.0020318 1.33475402,16.0377441 1.32228382,16.0738209 Z" id="shoe"></path>
                        </g>
                        <polygon id="Bottom" fill="#69A1AC" points="74.62 0 84.3266667 38.2895813 113.97466 38.2895813 109.554023 0"></polygon>
                        <path d="M69.16,-3.55271368e-15 C65.9661664,9.63999886 65.3594998,22.4031926 67.34,38.2895813 L97.5946595,38.2895813 L105.914023,-3.55271368e-15 L69.16,-3.55271368e-15 Z" id="Bottom" fill="#89C5CC"></path>
                    </g>
                    <g id="Body/Lab-Coat" transform="translate(268.245877, 107.444646) scale(-1, 1) rotate(8.000000) translate(-268.245877, -107.444646) translate(190.524738, 50.466425)">
                        <path d="M115.256349,54.0189437 L133.533404,69.6202709 C138.66024,71.4078686 142.903249,73.4815782 146.26243,75.8413996 C147.037822,76.6595219 147.931867,78.2687424 144.515752,77.7609895 C141.099636,77.2532366 137.483716,76.873847 136.927892,78.0200073 C136.372068,79.1661676 138.352527,80.7230874 137.284028,82.2471299 C136.571695,83.2631582 133.739236,80.3903231 128.786651,73.6286245 L110.261125,64.3195556 L115.256349,54.0189437 Z M32.4937765,47.2678865 L43.2177048,48.835975 C31.7065183,73.9827441 25.5352348,87.281812 24.7038542,88.7331788 C22.8332479,91.998754 25.0332065,97.6866111 25.8932251,100.697627 C21.5469293,101.96132 22.934989,95.2000736 17.4393747,96.886458 C12.4232328,98.4257114 8.28384347,101.915122 3.3158166,97.7658277 C2.70502688,97.2556964 2.19051142,95.5875786 4.13188218,94.6156425 C8.96854471,92.1941953 16.0698836,87.7632562 17.173763,86.1302195 C18.6790999,83.9032822 23.7857711,70.9491712 32.4937765,47.2678865 Z" id="Skin" fill="#D4A181"></path>
                        <path d="M74.4398011,5.59955462 L80.8666576,2.816255 C91.8223041,24.6164834 107.126278,45.2977914 131.116556,61.79857 L126.424311,71.8942402 C105.739116,61.9513009 86.3313234,54.5195877 77.2463948,37.679067 C74.1972578,32.0269529 74.8474201,12.6411079 74.4398011,5.59955462 Z" id="Coat-Back" fill="#C5CFD6" transform="translate(102.778178, 37.355248) rotate(5.000000) translate(-102.778178, -37.355248) "></path>
                        <path d="M54.4921875,67.0588235 C73.5271115,69.0909091 88.5096847,69.0909091 99.4399071,67.0588235 C100.794088,66.8070618 101.007728,64.5242367 100.379728,62.9749203 C90.6001354,38.8480316 83.8939328,17.7959649 83.8939328,1.03797142 C82.0995006,1.94884414 78.9590751,2.0853498 74.4726562,1.44748841 C62.4154737,18.7171395 56.8732162,38.5320882 54.4921875,67.0588235 Z" id="Shirt" fill="#323337"></path>
                        <path d="M71.4752206,4.08562073e-14 L76.5000228,3.77475828e-14 C77.6699968,6.9283171 81.3601735,100.748316 92.7521169,131.438931 L31.1122045,131.438931 C32.4485403,103.323774 42.9900195,69.5506024 53.6686344,41.288916 C44.2261232,49.9889924 35.9961983,64.7306306 28.9788597,85.5138306 L17.4330324,82.5296891 C26.0177335,45.2836546 43.6678883,17.9076802 70.3834967,0.401765787 C70.4413468,0.267203619 70.4989263,0.133280222 70.5562317,4.14113188e-14 L71.0009008,4.11337631e-14 C71.164569,-0.105766052 71.3285739,-0.211165496 71.4929156,-0.316198333 L71.4752206,4.15778523e-14 Z" id="Coat-Front" fill="#DDE3E9"></path>
                    </g>
                </g>
            </g>
        </g>
    </g>
</svg>